<svg width="121" height="44" viewBox="0 0 121 44" fill="none" xmlns="http://www.w3.org/2000/svg">
<path d="M60.5011 28.1235H1.28121C0.851336 28.1235 0.5 27.7721 0.5 27.3423C0.5 26.2287 1.18152 0.0793457 60.4347 0.0793457C60.8646 0.0793457 61.2135 0.428493 61.2159 0.85812L61.2823 27.3398C61.2823 27.5465 61.1991 27.7459 61.0542 27.893C60.9071 28.0401 60.7075 28.1235 60.5011 28.1235ZM2.13827 26.5611H59.7199L59.6557 1.64176C8.43289 1.84818 2.76046 22.2801 2.13827 26.5611Z" fill="#252525"/>
<path d="M119.719 28.1235H60.5011C60.2944 28.1235 60.0951 28.0403 59.948 27.8932C59.8031 27.7461 59.7199 27.5465 59.7199 27.3401L59.7841 0.858364C59.7865 0.428494 60.1354 0.0795898 60.5653 0.0795898C119.819 0.0795898 120.5 26.2289 120.5 27.3425C120.5 27.7724 120.149 28.1235 119.719 28.1235ZM61.2823 26.5611H118.857C118.209 22.2728 112.415 1.84818 61.3441 1.64176L61.2823 26.5611Z" fill="#252525"/>
<path d="M119.719 33.5632H1.28121C0.851336 33.5632 0.5 33.2119 0.5 32.782V27.3422C0.5 26.9124 0.851336 26.561 1.28121 26.561H119.719C120.149 26.561 120.5 26.9124 120.5 27.3422V32.782C120.5 33.2119 120.149 33.5632 119.719 33.5632ZM2.06241 32.0008H118.938V28.1234H2.06241V32.0008Z" fill="#252525"/>
<path d="M113.792 43.7137H108.682C108.253 43.7137 107.901 43.3624 107.901 42.9325V32.7819C107.901 32.3521 108.253 32.0007 108.682 32.0007C109.112 32.0007 109.464 32.3521 109.464 32.7819V42.1513H113.011V32.7819C113.011 32.3521 113.362 32.0007 113.792 32.0007C114.222 32.0007 114.573 32.3521 114.573 32.7819V42.9325C114.573 43.3624 114.222 43.7137 113.792 43.7137Z" fill="#252525"/>
<path d="M12.3175 43.7137H7.21016C6.78029 43.7137 6.42896 43.3624 6.42896 42.9325V32.7819C6.42896 32.3521 6.78029 32.0007 7.21016 32.0007C7.64003 32.0007 7.99137 32.3521 7.99137 32.7819V42.1513H11.5363V32.7819C11.5363 32.3521 11.8877 32.0007 12.3175 32.0007C12.7474 32.0007 13.0987 32.3521 13.0987 32.7819V42.9325C13.0987 43.3624 12.7474 43.7137 12.3175 43.7137Z" fill="#252525"/>
</svg>
