<svg width="300" height="60" viewBox="0 0 300 60" fill="none" xmlns="http://www.w3.org/2000/svg">
<g clip-path="url(#clip0_21_3170)">
<path d="M118.183 59.1837H116.088V2.20368C113.998 2.53408 109.093 3.8456 104.234 9.03905C100.451 13.0825 97.4305 18.6493 95.2573 25.5849C92.5193 34.3234 91.131 45.2542 91.131 58.0734C91.131 58.6513 90.662 59.1198 90.0834 59.1198C89.5049 59.1198 89.0359 58.6513 89.0359 58.0734C89.0359 45.1729 87.6301 34.1865 84.8575 25.4199C82.6619 18.4772 79.6134 12.9173 75.7968 8.89451C70.953 3.78911 66.1418 2.51535 64.0784 2.19788V59.1835H61.9834V1.04647C61.9834 0.468523 62.4524 0 63.0309 0C63.3255 0 70.3249 0.0847883 77.3174 7.45495C81.3542 11.7097 84.5632 17.542 86.8553 24.7895C88.2915 29.3308 89.3692 34.442 90.0834 40.0847C90.7977 34.442 91.8754 29.3308 93.3115 24.7895C95.6036 17.542 98.8126 11.7098 102.849 7.45495C109.842 0.0847883 116.841 0 117.136 0C117.715 0 118.184 0.468523 118.184 1.04647L118.183 59.1837Z" fill="#242424"/>
<path d="M238.018 59.1837H235.923V2.20368C233.833 2.53408 228.927 3.8456 224.068 9.03905C220.285 13.0825 217.264 18.6493 215.091 25.5849C212.353 34.3234 210.965 45.2542 210.965 58.0734C210.965 58.6513 210.496 59.1198 209.917 59.1198C209.339 59.1198 208.87 58.6513 208.87 58.0734C208.87 45.1729 207.464 34.1865 204.692 25.4199C202.496 18.4772 199.447 12.9173 195.631 8.89451C190.787 3.78911 185.976 2.51535 183.912 2.19788V59.1835H181.817V1.04647C181.817 0.468523 182.286 0 182.865 0C183.159 0 190.159 0.0847883 197.151 7.45495C201.188 11.7097 204.397 17.542 206.689 24.7895C208.125 29.3308 209.203 34.4421 209.917 40.0847C210.632 34.4421 211.709 29.3308 213.145 24.7895C215.437 17.542 218.646 11.7098 222.683 7.45495C229.676 0.0846864 236.675 0 236.97 0C237.548 0 238.017 0.468523 238.017 1.04647L238.018 59.1837Z" fill="#242424"/>
<path d="M129.607 1.59662V0.834549H131.389L131.304 40.0526C131.304 49.2008 139.612 56.655 149.958 56.655C160.303 56.655 168.612 49.2008 168.612 40.0526V0.834549H170.393L170.308 40.0526C170.308 50.0481 161.319 58.349 149.958 58.349C138.596 58.349 129.607 50.0481 129.607 40.0526V1.59662Z" fill="#242424"/>
<path d="M149.958 58.5672C138.617 58.5672 129.39 50.2616 129.39 40.0526V0.616425H131.608L131.523 40.0531C131.523 49.087 139.793 56.4369 149.958 56.4369C160.124 56.4369 168.394 49.087 168.394 40.0526V0.616425H170.612L170.527 40.0531C170.527 50.2616 161.3 58.5672 149.958 58.5672ZM129.826 1.05278V40.0527C129.826 50.0211 138.858 58.131 149.958 58.131C161.059 58.131 170.09 50.0212 170.09 40.0527L170.174 1.05278H168.831V40.0527C168.831 49.3276 160.365 56.8732 149.958 56.8732C139.552 56.8732 131.086 49.3276 131.086 40.0527L131.17 1.05278H129.826Z" fill="#242424"/>
<path d="M249.98 57.8408L249.811 58.3491H247.945L248.455 57.1634L273.045 1.25828C273.299 0.665372 274.316 0.665372 274.57 1.25828L299.16 57.1633L299.668 58.349H297.803L297.633 57.8407L273.807 3.71418L249.98 57.8408Z" fill="#242424"/>
<path d="M300 58.5672H297.646L297.43 57.9193L273.807 4.2561L250.185 57.9193L249.969 58.5672H247.614L248.254 57.0772L272.845 1.17054C272.995 0.821924 273.373 0.595551 273.808 0.595551C274.243 0.595551 274.621 0.822026 274.771 1.17248L299.361 57.0757L300 58.5672ZM297.96 58.1309H299.338L298.96 57.2491L274.371 1.34602C274.271 1.11354 274.005 1.03181 273.808 1.03181C273.61 1.03181 273.345 1.11364 273.246 1.34419L248.655 57.2512L248.277 58.131H249.654L249.781 57.7531L273.807 3.17248L297.841 57.7719L297.96 58.1309Z" fill="#242424"/>
<path d="M273.807 58.349C274.855 58.349 275.705 57.5002 275.705 56.453C275.705 55.4059 274.855 54.5571 273.807 54.5571C272.759 54.5571 271.909 55.4059 271.909 56.453C271.909 57.5002 272.759 58.349 273.807 58.349Z" fill="#242424"/>
<path d="M2.36622 57.8408L2.19688 58.3491H0.331055L0.839897 57.1634L25.4299 1.25828C25.6839 0.665372 26.7015 0.665372 26.9556 1.25828L51.5456 57.1633L52.0551 58.349H50.1893L50.02 57.8407L26.1935 3.71429L2.36622 57.8408Z" fill="#242424"/>
<path d="M52.3865 58.5672H50.0319L49.816 57.9193L26.1935 4.2562L2.57029 57.9194L2.35439 58.5673H0L0.639262 57.0774L25.2301 1.17054C25.3794 0.821924 25.7577 0.595551 26.1928 0.595551C26.628 0.595551 27.0062 0.822026 27.1564 1.17248L51.7456 57.0757L52.3865 58.5672ZM50.3468 58.1309H51.7239L51.3451 57.2493L26.7558 1.34602C26.6561 1.11354 26.3904 1.03181 26.1928 1.03181C25.9953 1.03181 25.7295 1.11364 25.6307 1.34419L1.03979 57.2511L0.662289 58.1309H2.03955L2.1665 57.753L26.1935 3.17248L50.2272 57.7719L50.3468 58.1309Z" fill="#242424"/>
<path d="M26.1928 58.349C27.241 58.349 28.0908 57.5002 28.0908 56.453C28.0908 55.4059 27.241 54.5571 26.1928 54.5571C25.1446 54.5571 24.2949 55.4059 24.2949 56.453C24.2949 57.5002 25.1446 58.349 26.1928 58.349Z" fill="#242424"/>
</g>
<defs>
<clipPath id="clip0_21_3170">
<rect width="300" height="59.1837" fill="white"/>
</clipPath>
</defs>
</svg>
