<svg width="121" height="71" viewBox="0 0 121 71" fill="none" xmlns="http://www.w3.org/2000/svg">
<path d="M1.45518 70.7138C1.20249 70.7138 0.961685 70.6121 0.78153 70.4349C0.601672 70.2551 0.5 70.011 0.5 69.7586V1.77769C0.5 1.25209 0.929578 0.82251 1.45518 0.82251C2.73559 0.82251 32.8096 1.60645 32.8096 69.6831C32.8096 70.2087 32.3827 70.6353 31.8574 70.6383L1.45518 70.7138ZM2.41036 2.82562V68.8034L30.8993 68.7309C30.7512 34.7696 22.7762 18.6249 16.0757 11.0506C10.3794 4.61112 4.63108 3.1568 2.41036 2.82562Z" fill="#252525"/>
<path d="M113.297 47.8396H30.4985C29.9729 47.8396 29.5433 47.41 29.5433 46.8844C29.5433 46.3588 29.9729 45.9292 30.4985 45.9292H113.297C113.823 45.9292 114.253 46.3588 114.253 46.8844C114.253 47.41 113.823 47.8396 113.297 47.8396Z" fill="#252525"/>
<path d="M113.297 55.0454H31.8545C31.3289 55.0454 30.8993 54.6158 30.8993 54.0902C30.8993 53.5646 31.3289 53.135 31.8545 53.135H113.297C113.823 53.135 114.253 53.5646 114.253 54.0902C114.253 54.6158 113.823 55.0454 113.297 55.0454Z" fill="#252525"/>
<path d="M119.545 70.7139H113.297C112.771 70.7139 112.342 70.2843 112.342 69.7587V19.4437C112.342 18.9181 112.771 18.4885 113.297 18.4885H119.545C120.07 18.4885 120.5 18.9181 120.5 19.4437V69.7587C120.5 70.2843 120.07 70.7139 119.545 70.7139ZM114.253 68.8036H118.59V20.3989H114.253V68.8036Z" fill="#252525"/>
</svg>
