<svg width="121" height="70" viewBox="0 0 121 70" fill="none" xmlns="http://www.w3.org/2000/svg">
<path d="M60.5 69.7138C60.2645 69.7138 60.04 69.619 59.8721 69.4541C59.7044 69.2865 59.6096 69.0589 59.6096 68.8236V7.00761C59.6096 6.51764 60.0101 6.11719 60.5 6.11719C61.6637 6.11719 89.0332 6.82886 89.0332 68.7558C89.0332 69.2457 88.6352 69.6434 88.1455 69.6462L60.5 69.7138ZM61.3905 7.99531V67.9329L87.2523 67.8681C87.0196 15.0076 66.0155 8.73137 61.3905 7.99531Z" fill="#252525"/>
<path d="M60.5 69.7138L32.8518 69.6462C32.3618 69.6434 31.9641 69.2457 31.9641 68.7558C31.9641 6.82886 59.3336 6.11719 60.5 6.11719C60.7356 6.11719 60.9628 6.21197 61.128 6.37963C61.2957 6.5448 61.3905 6.77205 61.3905 7.00761V68.8236C61.3905 69.0592 61.2957 69.2865 61.128 69.4541C60.9603 69.6193 60.7356 69.7138 60.5 69.7138ZM33.745 67.8681L59.6096 67.9329V7.99531C54.9846 8.73137 33.9777 15.0076 33.745 67.8681Z" fill="#252525"/>
<path d="M119.61 7.898H1.39042C0.900454 7.898 0.5 7.49755 0.5 7.00758V1.32695C0.5 0.836978 0.900454 0.436523 1.39042 0.436523H119.61C120.1 0.436523 120.5 0.836978 120.5 1.32695V7.00758C120.5 7.49755 120.1 7.898 119.61 7.898ZM2.28084 6.11716H118.719V2.21737H2.28084V6.11716Z" fill="#252525"/>
</svg>
