<svg width="121" height="76" viewBox="0 0 121 76" fill="none" xmlns="http://www.w3.org/2000/svg">
<g clip-path="url(#clip0_16_1140)">
<path d="M119.45 75.7138C118.184 75.7138 88.4404 74.9385 88.4404 7.74363C88.4404 7.16599 88.9096 6.69714 89.4869 6.69387L119.447 6.62036C119.725 6.62036 119.993 6.7321 120.191 6.92683C120.388 7.12449 120.5 7.39273 120.5 7.67012V74.6641C120.5 75.2417 120.028 75.7138 119.45 75.7138ZM90.5399 8.79012C90.8111 65.5868 113.232 72.6286 118.4 73.4964V8.71988L90.5399 8.79012Z" fill="#252525"/>
<path d="M119.45 8.79339H8.41287C7.83523 8.79339 7.36312 8.32128 7.36312 7.74363C7.36312 7.16599 7.83523 6.69387 8.41287 6.69387H118.401V2.09951H2.59951V7.74363C2.59951 8.32128 2.1274 8.79339 1.54976 8.79339C0.972113 8.79339 0.5 8.32128 0.5 7.74363V1.04976C0.5 0.472113 0.972113 0 1.54976 0H119.45C120.028 0 120.5 0.472113 120.5 1.04976V7.74363C120.5 8.32128 120.028 8.79339 119.45 8.79339Z" fill="#252525"/>
<path d="M8.41287 75.7138H1.54976C0.972113 75.7138 0.5 75.2417 0.5 74.6641V8.34346C0.5 7.76581 0.972113 7.2937 1.54976 7.2937C2.1274 7.2937 2.59951 7.76581 2.59951 8.34346V73.6143H7.36312V8.34346C7.36312 7.76581 7.83523 7.2937 8.41287 7.2937C8.99052 7.2937 9.46263 7.76581 9.46263 8.34346V74.6641C9.46263 75.2417 8.99052 75.7138 8.41287 75.7138Z" fill="#252525"/>
</g>
<defs>
<clipPath id="clip0_16_1140">
<rect width="120" height="75.7138" fill="white" transform="translate(0.5)"/>
</clipPath>
</defs>
</svg>
