<svg width="16" height="17" viewBox="0 0 16 17" fill="none" xmlns="http://www.w3.org/2000/svg">
<path d="M9.875 15.25V11.5C9.875 11.3342 9.80915 11.1753 9.69194 11.0581C9.57473 10.9408 9.41576 10.875 9.25 10.875H6.75C6.58424 10.875 6.42527 10.9408 6.30806 11.0581C6.19085 11.1753 6.125 11.3342 6.125 11.5V15.25C6.125 15.4158 6.05915 15.5747 5.94194 15.6919C5.82473 15.8092 5.66576 15.875 5.5 15.875H1.75C1.58424 15.875 1.42527 15.8092 1.30806 15.6919C1.19085 15.5747 1.125 15.4158 1.125 15.25V8.02344C1.1264 7.93694 1.14509 7.8516 1.17998 7.77244C1.21486 7.69328 1.26523 7.6219 1.32812 7.5625L7.57812 1.88281C7.69334 1.77741 7.84384 1.71895 8 1.71895C8.15616 1.71895 8.30666 1.77741 8.42187 1.88281L14.6719 7.5625C14.7348 7.6219 14.7851 7.69328 14.82 7.77244C14.8549 7.8516 14.8736 7.93694 14.875 8.02344V15.25C14.875 15.4158 14.8092 15.5747 14.6919 15.6919C14.5747 15.8092 14.4158 15.875 14.25 15.875H10.5C10.3342 15.875 10.1753 15.8092 10.0581 15.6919C9.94085 15.5747 9.875 15.4158 9.875 15.25Z" stroke="#5F6C72" stroke-width="1.5" stroke-linecap="round" stroke-linejoin="round"/>
</svg>
