<svg width="36" height="37" viewBox="0 0 36 37" fill="none" xmlns="http://www.w3.org/2000/svg">
<mask id="mask0_2002_330" style="mask-type:alpha" maskUnits="userSpaceOnUse" x="0" y="0" width="36" height="37">
<rect y="0.5" width="36" height="36" fill="#D9D9D9"/>
</mask>
<g mask="url(#mask0_2002_330)">
<path d="M18 32L15.825 30.05C13.3 27.775 11.2125 25.8125 9.5625 24.1625C7.9125 22.5125 6.6 21.0313 5.625 19.7188C4.65 18.4063 3.96875 17.2 3.58125 16.1C3.19375 15 3 13.875 3 12.725C3 10.375 3.7875 8.41251 5.3625 6.83751C6.9375 5.26251 8.9 4.47501 11.25 4.47501C12.55 4.47501 13.7875 4.75001 14.9625 5.30001C16.1375 5.85001 17.15 6.62501 18 7.62501C18.85 6.62501 19.8625 5.85001 21.0375 5.30001C22.2125 4.75001 23.45 4.47501 24.75 4.47501C27.1 4.47501 29.0625 5.26251 30.6375 6.83751C32.2125 8.41251 33 10.375 33 12.725C33 13.875 32.8063 15 32.4188 16.1C32.0313 17.2 31.35 18.4063 30.375 19.7188C29.4 21.0313 28.0875 22.5125 26.4375 24.1625C24.7875 25.8125 22.7 27.775 20.175 30.05L18 32ZM18 27.95C20.4 25.8 22.375 23.9563 23.925 22.4188C25.475 20.8813 26.7 19.5438 27.6 18.4063C28.5 17.2688 29.125 16.2563 29.475 15.3688C29.825 14.4813 30 13.6 30 12.725C30 11.225 29.5 9.97501 28.5 8.97501C27.5 7.97501 26.25 7.47501 24.75 7.47501C23.575 7.47501 22.4875 7.80626 21.4875 8.46876C20.4875 9.13126 19.8 9.97501 19.425 11H16.575C16.2 9.97501 15.5125 9.13126 14.5125 8.46876C13.5125 7.80626 12.425 7.47501 11.25 7.47501C9.75 7.47501 8.5 7.97501 7.5 8.97501C6.5 9.97501 6 11.225 6 12.725C6 13.6 6.175 14.4813 6.525 15.3688C6.875 16.2563 7.5 17.2688 8.4 18.4063C9.3 19.5438 10.525 20.8813 12.075 22.4188C13.625 23.9563 15.6 25.8 18 27.95Z" fill="#1C1B1F"/>
</g>
</svg>
