<svg width="36" height="37" viewBox="0 0 36 37" fill="none" xmlns="http://www.w3.org/2000/svg">
<mask id="mask0_2002_333" style="mask-type:alpha" maskUnits="userSpaceOnUse" x="0" y="0" width="36" height="37">
<rect y="0.5" width="36" height="36" fill="#D9D9D9"/>
</mask>
<g mask="url(#mask0_2002_333)">
<path d="M7.5 33.5C6.675 33.5 5.96875 33.2063 5.38125 32.6188C4.79375 32.0312 4.5 31.325 4.5 30.5V12.5C4.5 11.675 4.79375 10.9688 5.38125 10.3813C5.96875 9.79375 6.675 9.5 7.5 9.5H10.5C10.5 7.425 11.2313 5.65625 12.6938 4.19375C14.1562 2.73125 15.925 2 18 2C20.075 2 21.8438 2.73125 23.3063 4.19375C24.7688 5.65625 25.5 7.425 25.5 9.5H28.5C29.325 9.5 30.0312 9.79375 30.6188 10.3813C31.2063 10.9688 31.5 11.675 31.5 12.5V30.5C31.5 31.325 31.2063 32.0312 30.6188 32.6188C30.0312 33.2063 29.325 33.5 28.5 33.5H7.5ZM7.5 30.5H28.5V12.5H7.5V30.5ZM18 21.5C20.075 21.5 21.8438 20.7688 23.3063 19.3063C24.7688 17.8438 25.5 16.075 25.5 14H22.5C22.5 15.25 22.0625 16.3125 21.1875 17.1875C20.3125 18.0625 19.25 18.5 18 18.5C16.75 18.5 15.6875 18.0625 14.8125 17.1875C13.9375 16.3125 13.5 15.25 13.5 14H10.5C10.5 16.075 11.2313 17.8438 12.6938 19.3063C14.1562 20.7688 15.925 21.5 18 21.5ZM13.5 9.5H22.5C22.5 8.25 22.0625 7.1875 21.1875 6.3125C20.3125 5.4375 19.25 5 18 5C16.75 5 15.6875 5.4375 14.8125 6.3125C13.9375 7.1875 13.5 8.25 13.5 9.5Z" fill="#1C1B1F"/>
</g>
</svg>
