<svg width="200" height="40" viewBox="0 0 200 40" fill="none" xmlns="http://www.w3.org/2000/svg">
<path d="M78.7888 39.4962H77.3921V1.47062C75.9988 1.69111 72.7287 2.56635 69.4891 6.0322C66.9669 8.73061 64.9535 12.4456 63.5047 17.074C61.6794 22.9057 60.7538 30.2003 60.7538 38.7552C60.7538 39.1409 60.4411 39.4536 60.0554 39.4536C59.6697 39.4536 59.3571 39.1409 59.3571 38.7552C59.3571 30.1461 58.4199 22.8143 56.5715 16.9639C55.1078 12.3307 53.0754 8.62036 50.531 5.93574C47.3018 2.52866 44.0943 1.67862 42.7187 1.46675V39.496H41.3221V0.698359C41.3221 0.312669 41.6348 0 42.0204 0C42.2168 0 46.8831 0.0565834 51.5448 4.97505C54.236 7.81447 56.3753 11.7066 57.9034 16.5432C58.8608 19.5739 59.5793 22.9848 60.0554 26.7504C60.5316 22.9848 61.2501 19.5739 62.2075 16.5432C63.7355 11.7066 65.8749 7.81454 68.5661 4.97505C73.2279 0.0565834 77.8941 0 78.0905 0C78.4762 0 78.7889 0.312669 78.7889 0.698359L78.7888 39.4962Z" fill="white"/>
<path d="M158.678 39.4962H157.282V1.47062C155.888 1.69111 152.618 2.56635 149.379 6.0322C146.856 8.73061 144.843 12.4456 143.394 17.074C141.569 22.9057 140.643 30.2003 140.643 38.7552C140.643 39.1409 140.331 39.4536 139.945 39.4536C139.559 39.4536 139.247 39.1409 139.247 38.7552C139.247 30.1461 138.309 22.8143 136.461 16.9639C134.997 12.3307 132.965 8.62036 130.421 5.93574C127.191 2.52866 123.984 1.67862 122.608 1.46675V39.496H121.212V0.698359C121.212 0.312669 121.524 0 121.91 0C122.106 0 126.773 0.0565834 131.434 4.97505C134.126 7.81447 136.265 11.7066 137.793 16.5432C138.75 19.5739 139.469 22.9849 139.945 26.7504C140.421 22.9849 141.14 19.5739 142.097 16.5432C143.625 11.7066 145.764 7.81454 148.456 4.97505C153.117 0.0565154 157.784 0 157.98 0C158.366 0 158.678 0.312669 158.678 0.698359L158.678 39.4962Z" fill="white"/>
<path d="M86.4052 1.0657V0.557129H87.5926L87.5362 26.7292C87.5362 32.8343 93.0753 37.8088 99.9721 37.8088C106.869 37.8088 112.408 32.8343 112.408 26.7292V0.557129H113.595L113.539 26.7292C113.539 33.3998 107.546 38.9394 99.9721 38.9394C92.3978 38.9394 86.4052 33.3998 86.4052 26.7292V1.0657Z" fill="white"/>
<path d="M99.9721 39.0845C92.4111 39.0845 86.2596 33.5418 86.2596 26.7288V0.411133H87.7385L87.6818 26.7292C87.6818 32.7579 93.1952 37.6628 99.9722 37.6628C106.749 37.6628 112.262 32.7579 112.262 26.7288V0.411133H113.741L113.685 26.7292C113.685 33.5418 107.533 39.0845 99.9721 39.0845ZM86.5508 0.702336V26.7289C86.5508 33.3813 92.5716 38.7934 99.9721 38.7934C107.373 38.7934 113.393 33.3813 113.393 26.7289L113.45 0.702336H112.554V26.7289C112.554 32.9185 106.91 37.954 99.9721 37.954C93.0346 37.954 87.3906 32.9185 87.3906 26.7289L87.4467 0.702336H86.5508Z" fill="white"/>
<path d="M166.654 38.6L166.541 38.9392H165.297L165.637 38.1479L182.03 0.839725C182.199 0.44405 182.878 0.44405 183.047 0.839725L199.441 38.1479L199.779 38.9392H198.535L198.423 38.5999L182.538 2.47867L166.654 38.6Z" fill="white"/>
<path d="M200 39.0847H198.43L198.287 38.6524L182.538 2.84032L166.79 38.6524L166.646 39.0847H165.076L165.503 38.0904L181.897 0.781181C181.996 0.548531 182.249 0.397461 182.539 0.397461C182.829 0.397461 183.081 0.548599 183.181 0.782472L199.574 38.0894L200 39.0847ZM198.64 38.7936H199.559L199.307 38.2052L182.914 0.898288C182.848 0.743142 182.67 0.688597 182.539 0.688597C182.407 0.688597 182.23 0.74321 182.164 0.897065L165.77 38.2065L165.518 38.7937H166.436L166.521 38.5415L182.538 2.11717L198.561 38.554L198.64 38.7936Z" fill="white"/>
<path d="M182.538 38.9393C183.237 38.9393 183.804 38.3728 183.804 37.674C183.804 36.9752 183.237 36.4087 182.538 36.4087C181.839 36.4087 181.273 36.9752 181.273 37.674C181.273 38.3728 181.839 38.9393 182.538 38.9393Z" fill="white"/>
<path d="M1.57754 38.6L1.46465 38.9392H0.220764L0.559992 38.1479L16.9533 0.839725C17.1227 0.44405 17.8011 0.44405 17.9705 0.839725L34.3638 38.1479L34.7035 38.9392H33.4596L33.3467 38.5999L17.4624 2.47874L1.57754 38.6Z" fill="white"/>
<path d="M34.9243 39.0847H33.3546L33.2107 38.6524L17.4624 2.84039L1.71353 38.6525L1.56959 39.0848H0L0.426175 38.0906L16.82 0.781181C16.9196 0.548531 17.1718 0.397461 17.4619 0.397461C17.752 0.397461 18.0042 0.548599 18.1043 0.782472L34.4971 38.0894L34.9243 39.0847ZM33.5646 38.7936H34.4826L34.23 38.2053L17.8372 0.898288C17.7708 0.743142 17.5936 0.688597 17.4619 0.688597C17.3302 0.688597 17.153 0.74321 17.0871 0.897065L0.693196 38.2064L0.441526 38.7936H1.3597L1.44433 38.5414L17.4624 2.11717L33.4848 38.554L33.5646 38.7936Z" fill="white"/>
<path d="M17.4621 38.9393C18.1609 38.9393 18.7274 38.3728 18.7274 37.674C18.7274 36.9752 18.1609 36.4087 17.4621 36.4087C16.7633 36.4087 16.1968 36.9752 16.1968 37.674C16.1968 38.3728 16.7633 38.9393 17.4621 38.9393Z" fill="white"/>
</svg>
