<svg width="23" height="20" viewBox="0 0 23 20" fill="none" xmlns="http://www.w3.org/2000/svg">
<path d="M20.5 0H2.5C1.11929 0 8.60676e-09 1.12335 8.60676e-09 2.50907V4.51633C-3.38582e-05 4.69996 0.0998818 4.86896 0.2605 4.95692L11.2605 10.9787C11.4098 11.0604 11.5902 11.0604 11.7395 10.9787L22.7395 4.95692C22.9001 4.86896 23 4.69996 23 4.51633V2.50907C23 1.12335 21.8807 0 20.5 0Z" fill="#836035"/>
<path d="M12.2185 12.2346C11.7712 12.4749 11.2308 12.4749 10.7835 12.2346L0.0115 6.43994L0 6.44734V16.8539C0 18.2159 1.11929 19.3199 2.5 19.3199H20.5C21.8807 19.3199 23 18.2159 23 16.8539V6.44734L22.9885 6.44043L12.2185 12.2346Z" fill="#836035"/>
</svg>
