<svg width="36" height="37" viewBox="0 0 36 37" fill="none" xmlns="http://www.w3.org/2000/svg">
<mask id="mask0_2002_327" style="mask-type:alpha" maskUnits="userSpaceOnUse" x="0" y="0" width="36" height="37">
<rect y="0.5" width="36" height="36" fill="#D9D9D9"/>
</mask>
<g mask="url(#mask0_2002_327)">
<path d="M18 18.5C16.35 18.5 14.9375 17.9125 13.7625 16.7375C12.5875 15.5625 12 14.15 12 12.5C12 10.85 12.5875 9.4375 13.7625 8.2625C14.9375 7.0875 16.35 6.5 18 6.5C19.65 6.5 21.0625 7.0875 22.2375 8.2625C23.4125 9.4375 24 10.85 24 12.5C24 14.15 23.4125 15.5625 22.2375 16.7375C21.0625 17.9125 19.65 18.5 18 18.5ZM6 30.5V26.3C6 25.45 6.21875 24.6687 6.65625 23.9562C7.09375 23.2437 7.675 22.7 8.4 22.325C9.95 21.55 11.525 20.9688 13.125 20.5812C14.725 20.1937 16.35 20 18 20C19.65 20 21.275 20.1937 22.875 20.5812C24.475 20.9688 26.05 21.55 27.6 22.325C28.325 22.7 28.9062 23.2437 29.3438 23.9562C29.7812 24.6687 30 25.45 30 26.3V30.5H6ZM9 27.5H27V26.3C27 26.025 26.9312 25.775 26.7938 25.55C26.6562 25.325 26.475 25.15 26.25 25.025C24.9 24.35 23.5375 23.8438 22.1625 23.5063C20.7875 23.1688 19.4 23 18 23C16.6 23 15.2125 23.1688 13.8375 23.5063C12.4625 23.8438 11.1 24.35 9.75 25.025C9.525 25.15 9.34375 25.325 9.20625 25.55C9.06875 25.775 9 26.025 9 26.3V27.5ZM18 15.5C18.825 15.5 19.5313 15.2063 20.1188 14.6187C20.7063 14.0312 21 13.325 21 12.5C21 11.675 20.7063 10.9688 20.1188 10.3813C19.5313 9.79375 18.825 9.5 18 9.5C17.175 9.5 16.4688 9.79375 15.8813 10.3813C15.2937 10.9688 15 11.675 15 12.5C15 13.325 15.2937 14.0312 15.8813 14.6187C16.4688 15.2063 17.175 15.5 18 15.5Z" fill="#1C1B1F"/>
</g>
</svg>
