<svg width="30" height="26" viewBox="0 0 30 26" fill="none" xmlns="http://www.w3.org/2000/svg">
<path d="M6.29688 25.7C4.56354 25.7 3.09688 25.0333 1.89688 23.7C0.696875 22.3667 0.0968752 20.4667 0.0968752 18C0.0968752 14.8 1.13021 11.6667 3.19688 8.6C5.33021 5.53333 7.99688 2.83333 11.1969 0.499997L13.1969 2.4C9.79688 5.8 8.09688 9.16666 8.09688 12.5C8.09688 13.3667 8.23021 14.0667 8.49688 14.6C8.83021 15.1333 9.29688 15.8333 9.89688 16.7C10.4969 17.5667 10.9302 18.2667 11.1969 18.8C11.5302 19.3333 11.6969 20 11.6969 20.8C11.6969 22.2 11.1969 23.3667 10.1969 24.3C9.19688 25.2333 7.89688 25.7 6.29688 25.7ZM22.8969 25.7C21.1635 25.7 19.6969 25.0333 18.4969 23.7C17.2969 22.3667 16.6969 20.4667 16.6969 18C16.6969 14.8 17.7302 11.6667 19.7969 8.6C21.9302 5.53333 24.5969 2.83333 27.7969 0.499997L29.7969 2.4C26.3969 5.8 24.6969 9.16666 24.6969 12.5C24.6969 13.3667 24.8302 14.0667 25.0969 14.6C25.4302 15.1333 25.8969 15.8333 26.4969 16.7C27.0969 17.5667 27.5302 18.2667 27.7969 18.8C28.1302 19.3333 28.2969 20 28.2969 20.8C28.2969 22.2 27.7969 23.3667 26.7969 24.3C25.7969 25.2333 24.4969 25.7 22.8969 25.7Z" fill="#6E261C"/>
</svg>
