<svg width="16" height="16" viewBox="0 0 16 16" fill="none" xmlns="http://www.w3.org/2000/svg">
<mask id="mask0_32_2205" style="mask-type:alpha" maskUnits="userSpaceOnUse" x="0" y="0" width="16" height="16">
<rect width="16" height="16" fill="#D9D9D9"/>
</mask>
<g mask="url(#mask0_32_2205)">
<path d="M12 14.6667C11.4444 14.6667 10.9722 14.4722 10.5833 14.0833C10.1944 13.6945 10 13.2222 10 12.6667C10 12.5889 10.0056 12.5083 10.0167 12.425C10.0278 12.3417 10.0444 12.2667 10.0667 12.2L5.36667 9.46668C5.17778 9.63334 4.96667 9.7639 4.73333 9.85834C4.5 9.95279 4.25556 10 4 10C3.44444 10 2.97222 9.80556 2.58333 9.41668C2.19444 9.02779 2 8.55557 2 8.00001C2 7.44445 2.19444 6.97223 2.58333 6.58334C2.97222 6.19445 3.44444 6.00001 4 6.00001C4.25556 6.00001 4.5 6.04723 4.73333 6.14168C4.96667 6.23612 5.17778 6.36668 5.36667 6.53334L10.0667 3.80001C10.0444 3.73334 10.0278 3.65834 10.0167 3.57501C10.0056 3.49168 10 3.41112 10 3.33334C10 2.77779 10.1944 2.30557 10.5833 1.91668C10.9722 1.52779 11.4444 1.33334 12 1.33334C12.5556 1.33334 13.0278 1.52779 13.4167 1.91668C13.8056 2.30557 14 2.77779 14 3.33334C14 3.8889 13.8056 4.36112 13.4167 4.75001C13.0278 5.1389 12.5556 5.33334 12 5.33334C11.7444 5.33334 11.5 5.28612 11.2667 5.19168C11.0333 5.09723 10.8222 4.96668 10.6333 4.80001L5.93333 7.53334C5.95556 7.60001 5.97222 7.67501 5.98333 7.75834C5.99444 7.84168 6 7.92223 6 8.00001C6 8.07779 5.99444 8.15834 5.98333 8.24168C5.97222 8.32501 5.95556 8.40001 5.93333 8.46668L10.6333 11.2C10.8222 11.0333 11.0333 10.9028 11.2667 10.8083C11.5 10.7139 11.7444 10.6667 12 10.6667C12.5556 10.6667 13.0278 10.8611 13.4167 11.25C13.8056 11.6389 14 12.1111 14 12.6667C14 13.2222 13.8056 13.6945 13.4167 14.0833C13.0278 14.4722 12.5556 14.6667 12 14.6667ZM12 4.00001C12.1889 4.00001 12.3472 3.93612 12.475 3.80834C12.6028 3.68057 12.6667 3.52223 12.6667 3.33334C12.6667 3.14445 12.6028 2.98612 12.475 2.85834C12.3472 2.73057 12.1889 2.66668 12 2.66668C11.8111 2.66668 11.6528 2.73057 11.525 2.85834C11.3972 2.98612 11.3333 3.14445 11.3333 3.33334C11.3333 3.52223 11.3972 3.68057 11.525 3.80834C11.6528 3.93612 11.8111 4.00001 12 4.00001ZM4 8.66668C4.18889 8.66668 4.34722 8.60279 4.475 8.47501C4.60278 8.34723 4.66667 8.1889 4.66667 8.00001C4.66667 7.81112 4.60278 7.65279 4.475 7.52501C4.34722 7.39723 4.18889 7.33334 4 7.33334C3.81111 7.33334 3.65278 7.39723 3.525 7.52501C3.39722 7.65279 3.33333 7.81112 3.33333 8.00001C3.33333 8.1889 3.39722 8.34723 3.525 8.47501C3.65278 8.60279 3.81111 8.66668 4 8.66668ZM12 13.3333C12.1889 13.3333 12.3472 13.2695 12.475 13.1417C12.6028 13.0139 12.6667 12.8556 12.6667 12.6667C12.6667 12.4778 12.6028 12.3195 12.475 12.1917C12.3472 12.0639 12.1889 12 12 12C11.8111 12 11.6528 12.0639 11.525 12.1917C11.3972 12.3195 11.3333 12.4778 11.3333 12.6667C11.3333 12.8556 11.3972 13.0139 11.525 13.1417C11.6528 13.2695 11.8111 13.3333 12 13.3333Z" fill="white"/>
</g>
</svg>
