<svg width="25" height="24" viewBox="0 0 25 24" fill="none" xmlns="http://www.w3.org/2000/svg">
<path d="M12.167 16.5C16.3091 16.5 19.667 13.1421 19.667 9C19.667 4.85786 16.3091 1.5 12.167 1.5C8.02486 1.5 4.66699 4.85786 4.66699 9C4.66699 13.1421 8.02486 16.5 12.167 16.5Z" stroke="#6E261C" stroke-width="1.5" stroke-linecap="round" stroke-linejoin="round"/>
<path d="M12.167 13.5C14.6523 13.5 16.667 11.4853 16.667 9C16.667 6.51472 14.6523 4.5 12.167 4.5C9.68171 4.5 7.66699 6.51472 7.66699 9C7.66699 11.4853 9.68171 13.5 12.167 13.5Z" stroke="#6E261C" stroke-width="1.5" stroke-linecap="round" stroke-linejoin="round"/>
<path d="M16.667 15V22.5L12.167 20.25L7.66699 22.5V15" stroke="#6E261C" stroke-width="1.5" stroke-linecap="round" stroke-linejoin="round"/>
</svg>
