<svg width="25" height="24" viewBox="0 0 25 24" fill="none" xmlns="http://www.w3.org/2000/svg">
<path d="M21.3076 12.7499H18.3076C17.9098 12.7499 17.5283 12.908 17.247 13.1893C16.9657 13.4706 16.8076 13.8521 16.8076 14.2499V17.9999C16.8076 18.3978 16.9657 18.7793 17.247 19.0606C17.5283 19.3419 17.9098 19.4999 18.3076 19.4999H19.8076C20.2054 19.4999 20.587 19.3419 20.8683 19.0606C21.1496 18.7793 21.3076 18.3978 21.3076 17.9999V12.7499ZM21.3076 12.7499C21.3077 11.5617 21.0724 10.3852 20.6154 9.28838C20.1585 8.19154 19.4888 7.19604 18.6451 6.35932C17.8014 5.52261 16.8004 4.86124 15.6998 4.41338C14.5992 3.96553 13.4208 3.74004 12.2326 3.74995C11.0452 3.74129 9.86783 3.96769 8.76831 4.4161C7.66879 4.86452 6.66888 5.52608 5.82619 6.36267C4.9835 7.19926 4.31469 8.19434 3.8583 9.29057C3.40191 10.3868 3.16696 11.5625 3.16699 12.7499V17.9999C3.16699 18.3978 3.32503 18.7793 3.60633 19.0606C3.88764 19.3419 4.26917 19.4999 4.66699 19.4999H6.16699C6.56482 19.4999 6.94635 19.3419 7.22765 19.0606C7.50896 18.7793 7.66699 18.3978 7.66699 17.9999V14.2499C7.66699 13.8521 7.50896 13.4706 7.22765 13.1893C6.94635 12.908 6.56482 12.7499 6.16699 12.7499H3.16699" stroke="#6E261C" stroke-width="1.5" stroke-linecap="round" stroke-linejoin="round"/>
</svg>
