<svg width="25" height="24" viewBox="0 0 25 24" fill="none" xmlns="http://www.w3.org/2000/svg">
<path d="M22.7326 11.4187L20.417 12.5718L17.417 6.83432L19.7607 5.66245C19.9349 5.57366 20.1371 5.55734 20.3233 5.61706C20.5095 5.67677 20.6645 5.80766 20.7545 5.9812L23.0607 10.3968C23.1075 10.4852 23.1361 10.5821 23.1449 10.6817C23.1537 10.7813 23.1425 10.8817 23.1119 10.9769C23.0813 11.0721 23.032 11.1602 22.9669 11.2361C22.9018 11.312 22.8221 11.3741 22.7326 11.4187V11.4187Z" stroke="#6E261C" stroke-width="1.5" stroke-linecap="round" stroke-linejoin="round"/>
<path d="M3.91683 12.4781L1.60121 11.3156C1.51205 11.2719 1.43258 11.2107 1.36754 11.1357C1.3025 11.0607 1.25321 10.9734 1.2226 10.8789C1.19199 10.7844 1.18068 10.6848 1.18935 10.5859C1.19803 10.487 1.2265 10.3908 1.27308 10.3031L3.57933 5.88749C3.66955 5.71408 3.8239 5.58275 4.00952 5.52146C4.19514 5.46017 4.39735 5.47377 4.57308 5.55937L6.91683 6.73124L3.91683 12.4781Z" stroke="#6E261C" stroke-width="1.5" stroke-linecap="round" stroke-linejoin="round"/>
<path d="M20.417 12.5719L18.917 14.3344L15.467 17.7844C15.373 17.8723 15.259 17.9362 15.135 17.9704C15.0109 18.0047 14.8803 18.0085 14.7545 17.9813L9.31699 16.6219C9.21766 16.5942 9.12511 16.5463 9.04512 16.4813L3.91699 12.4781" stroke="#6E261C" stroke-width="1.5" stroke-linecap="round" stroke-linejoin="round"/>
<path d="M18.9171 14.3344L14.7921 11.3344L13.5921 12.2344C13.0722 12.6224 12.4408 12.832 11.7921 12.832C11.1433 12.832 10.512 12.6224 9.99208 12.2344L9.48583 11.85C9.40022 11.7849 9.32941 11.7024 9.27809 11.6079C9.22677 11.5134 9.1961 11.409 9.18813 11.3018C9.18015 11.1946 9.19504 11.0868 9.23182 10.9858C9.26859 10.8847 9.32641 10.7926 9.40145 10.7156L13.0764 7.04998C13.1455 6.98129 13.2274 6.92688 13.3175 6.88988C13.4076 6.85288 13.5041 6.83401 13.6015 6.83436H17.4171" stroke="#6E261C" stroke-width="1.5" stroke-linecap="round" stroke-linejoin="round"/>
<path d="M6.97314 6.73121L11.7825 5.32496C11.9534 5.27595 12.1361 5.28924 12.2981 5.36246L15.5419 6.83433" stroke="#6E261C" stroke-width="1.5" stroke-linecap="round" stroke-linejoin="round"/>
<path d="M10.667 19.9594L7.84512 19.2469C7.73013 19.2209 7.62365 19.166 7.53574 19.0875L5.41699 17.25" stroke="#6E261C" stroke-width="1.5" stroke-linecap="round" stroke-linejoin="round"/>
</svg>
